<svg id="Layer_1" data-name="Layer 1" xmlns="http://www.w3.org/2000/svg" viewBox="0 0 132.59 147.22"><defs><style>.cls-1{fill:#342e37;}.cls-2{fill:#908db9;}</style></defs><path class="cls-1" d="M136.1,69.25s-34.19-20.8-70.6-3c0,0,30.08-14.51,51.37,12.61-3.79,21.62-24.72,32.76-51.37,32.76-33.32,0-52.24-9.69-52.33-42.29H3.53a63.69,63.69,0,0,0,4.89,25A64.81,64.81,0,0,0,22.75,115.5a66.29,66.29,0,0,0,21.57,14.2,67.6,67.6,0,0,0,51,0,66.29,66.29,0,0,0,21.57-14.2A64.81,64.81,0,0,0,131.2,94.28a63.7,63.7,0,0,0,4.9-25h0Z" transform="translate(-3.53 -6.11)"/><path class="cls-1" d="M108.57,87.89a10.88,10.88,0,0,0-5.74-14.66,11.82,11.82,0,0,0-15.34,5.49,10.86,10.86,0,0,0,5.74,14.65A11.81,11.81,0,0,0,108.57,87.89Z" transform="translate(-3.53 -6.11)"/><path class="cls-2" d="M52.13,59.25A10.86,10.86,0,0,0,46.39,44.6a11.81,11.81,0,0,0-15.34,5.48,10.88,10.88,0,0,0,5.74,14.66A11.82,11.82,0,0,0,52.13,59.25Z" transform="translate(-3.53 -6.11)"/><path class="cls-2" d="M136,68.93h.08a61.94,61.94,0,0,0-19.6-44.45,68.49,68.49,0,0,0-93.36,0A62,62,0,0,0,3.54,68.93h0l0,0s34.19,20.3,70.6,3c0,0-34.14,12.94-55.43-13.56,3.77-21.11,24.48-33.89,51.12-33.89,32.24,0,58,10.86,59.35,41.24Q132.58,67.15,136,68.93Z" transform="translate(-3.53 -6.11)"/><path class="cls-1" d="M32.68,144.07h2.1v9.1h-2.1Zm-4.14,9.1h-2.1v-9.1h2.1Zm4.29-3.73H28.39v-1.78h4.44Zm8.53,3.89a5.52,5.52,0,0,1-2-.36,4.84,4.84,0,0,1-1.58-1,4.79,4.79,0,0,1-1-5.24,4.62,4.62,0,0,1,1.05-1.5,5,5,0,0,1,1.59-1,5.75,5.75,0,0,1,4,0A4.73,4.73,0,0,1,46,146.75a4.56,4.56,0,0,1,.37,1.87A4.67,4.67,0,0,1,46,150.5,4.61,4.61,0,0,1,43.32,153,5.22,5.22,0,0,1,41.36,153.33Zm0-1.8a2.9,2.9,0,0,0,1.12-.21,2.51,2.51,0,0,0,.91-.59,2.66,2.66,0,0,0,.6-.93,3.27,3.27,0,0,0,0-2.36,2.66,2.66,0,0,0-.6-.93,2.39,2.39,0,0,0-.9-.59,3,3,0,0,0-1.13-.21,3,3,0,0,0-1.13.21,2.52,2.52,0,0,0-.89.59,2.86,2.86,0,0,0-.62.93,3.4,3.4,0,0,0-.2,1.18,3.48,3.48,0,0,0,.2,1.18,3,3,0,0,0,.6.93,2.6,2.6,0,0,0,.91.59A3,3,0,0,0,41.34,151.53Zm6.57,1.64v-9.1h3.93a5,5,0,0,1,2.11.4,3.13,3.13,0,0,1,1.37,1.13,3.21,3.21,0,0,1,.48,1.77,3.18,3.18,0,0,1-.48,1.76A3.22,3.22,0,0,1,54,150.27a5.2,5.2,0,0,1-2.11.39H49.08l.93-.95v3.46ZM50,150l-.93-1h2.65a2.15,2.15,0,0,0,1.45-.41,1.45,1.45,0,0,0,.48-1.16,1.47,1.47,0,0,0-.48-1.17,2.15,2.15,0,0,0-1.45-.41H49.08l.93-1Zm9.23-2.21h4.38v1.63H59.24Zm.15,3.74h5v1.69h-7v-9.1h6.88v1.69H59.39Zm5.94,1.69V151.8l3.51-3.31a3.52,3.52,0,0,0,.61-.68,1.87,1.87,0,0,0,.26-.54,1.35,1.35,0,0,0,.08-.46,1,1,0,0,0-.37-.83,1.69,1.69,0,0,0-1.08-.3,2.73,2.73,0,0,0-1.07.22,2.16,2.16,0,0,0-.82.69l-1.53-1a3.52,3.52,0,0,1,1.45-1.23,5,5,0,0,1,2.16-.46,4.36,4.36,0,0,1,1.77.34,2.7,2.7,0,0,1,1.18.92,2.37,2.37,0,0,1,.43,1.43,3.41,3.41,0,0,1-.12.89,2.52,2.52,0,0,1-.44.91,6.2,6.2,0,0,1-1,1.08l-2.91,2.74-.4-.77h5.13v1.72Zm14.56-9.1H82v9.1H79.89Zm-4.13,9.1H73.65v-9.1h2.11Zm4.29-3.73H75.6v-1.78h4.45Zm2.9,3.73,4.06-9.1h2.08l4.07,9.1H91l-3.33-8h.83l-3.34,8Zm2-1.95.56-1.6h4.68l.57,1.6Zm9.12,1.95v-9.1h1.75l5.36,6.55h-.84v-6.55h2.08v9.1h-1.73l-5.38-6.55h.84v6.55Zm10.5,0v-9.1h4.14a5.73,5.73,0,0,1,2.61.57,4.35,4.35,0,0,1,1.77,1.57,4.91,4.91,0,0,1,0,4.81,4.4,4.4,0,0,1-1.77,1.59,5.86,5.86,0,0,1-2.61.56Zm2.11-1.73h1.92a3.41,3.41,0,0,0,1.58-.34,2.48,2.48,0,0,0,1-1,3.21,3.21,0,0,0,0-3,2.5,2.5,0,0,0-1-1,3.41,3.41,0,0,0-1.58-.35h-1.92Z" transform="translate(-3.53 -6.11)"/></svg>